<svg viewBox="0 0 1900 1000" xmlns="http://www.w3.org/2000/svg" preserveAspectRatio="xMidYMid meet" data-fg-d3bl1="0.8:0.125:/src/app/App.tsx:60:7:1732:711:e:svg:xtetx" data-fgid-d3bl1=":r3:" style="display: block; width: 240px; height: auto;"><rect x="0" y="0" width="1900" height="76.92307692307692" fill="#B22234" data-fg-d3bl3="0.8:0.125:/src/app/App.tsx:68:11:2014:192:e:rect"/><rect x="0" y="76.92307692307692" width="1900" height="76.92307692307692" fill="#FFFFFF" data-fg-d3bl3="0.8:0.125:/src/app/App.tsx:68:11:2014:192:e:rect"/><rect x="0" y="153.84615384615384" width="1900" height="76.92307692307692" fill="#B22234" data-fg-d3bl3="0.8:0.125:/src/app/App.tsx:68:11:2014:192:e:rect"/><rect x="0" y="230.76923076923077" width="1900" height="76.92307692307692" fill="#FFFFFF" data-fg-d3bl3="0.8:0.125:/src/app/App.tsx:68:11:2014:192:e:rect"/><rect x="0" y="307.6923076923077" width="1900" height="76.92307692307692" fill="#B22234" data-fg-d3bl3="0.8:0.125:/src/app/App.tsx:68:11:2014:192:e:rect"/><rect x="0" y="384.6153846153846" width="1900" height="76.92307692307692" fill="#FFFFFF" data-fg-d3bl3="0.8:0.125:/src/app/App.tsx:68:11:2014:192:e:rect"/><rect x="0" y="461.53846153846155" width="1900" height="76.92307692307692" fill="#B22234" data-fg-d3bl3="0.8:0.125:/src/app/App.tsx:68:11:2014:192:e:rect"/><rect x="0" y="538.4615384615385" width="1900" height="76.92307692307692" fill="#FFFFFF" data-fg-d3bl3="0.8:0.125:/src/app/App.tsx:68:11:2014:192:e:rect"/><rect x="0" y="615.3846153846154" width="1900" height="76.92307692307692" fill="#B22234" data-fg-d3bl3="0.8:0.125:/src/app/App.tsx:68:11:2014:192:e:rect"/><rect x="0" y="692.3076923076923" width="1900" height="76.92307692307692" fill="#FFFFFF" data-fg-d3bl3="0.8:0.125:/src/app/App.tsx:68:11:2014:192:e:rect"/><rect x="0" y="769.2307692307692" width="1900" height="76.92307692307692" fill="#B22234" data-fg-d3bl3="0.8:0.125:/src/app/App.tsx:68:11:2014:192:e:rect"/><rect x="0" y="846.1538461538461" width="1900" height="76.92307692307692" fill="#FFFFFF" data-fg-d3bl3="0.8:0.125:/src/app/App.tsx:68:11:2014:192:e:rect"/><rect x="0" y="923.0769230769231" width="1900" height="76.92307692307692" fill="#B22234" data-fg-d3bl3="0.8:0.125:/src/app/App.tsx:68:11:2014:192:e:rect"/><rect x="0" y="0" width="760" height="538.4615384615385" fill="#3C3B6E" data-fg-d3bl4="0.8:0.125:/src/app/App.tsx:77:9:2227:70:e:rect"/><path d="M63.333333333333336,4.923076923076923L68.27308059359927,20.124098102349866L84.25657669182671,20.12470304682808L71.32601229627781,29.52005574380398L76.26460888376775,44.721450799325766L63.333333333333336,35.32707692307692L50.40205778289893,44.721450799325766L55.34065437038886,29.520055743803983L42.41008997483996,20.124703046828074L58.39358607306739,20.124098102349866Z" fill="#FFFFFF" data-fg-d3bl6="0.8:0.125:/src/app/App.tsx:79:11:2346:72:e:path"/><path d="M190,4.923076923076923L194.93974726026593,20.124098102349866L210.92324335849338,20.12470304682808L197.99267896294447,29.52005574380398L202.9312755504344,44.721450799325766L190,35.32707692307692L177.0687244495656,44.721450799325766L182.00732103705553,29.520055743803983L169.07675664150662,20.124703046828074L185.06025273973407,20.124098102349866Z" fill="#FFFFFF" data-fg-d3bl6="0.8:0.125:/src/app/App.tsx:79:11:2346:72:e:path"/><path d="M316.6666666666667,4.923076923076923L321.60641392693265,20.124098102349866L337.58991002516007,20.12470304682808L324.65934562961115,29.52005574380398L329.5979422171011,44.721450799325766L316.6666666666667,35.32707692307692L303.7353911162323,44.721450799325766L308.6739877037222,29.520055743803983L295.7434233081733,20.124703046828074L311.7269194064007,20.124098102349866Z" fill="#FFFFFF" data-fg-d3bl6="0.8:0.125:/src/app/App.tsx:79:11:2346:72:e:path"/><path d="M443.3333333333333,4.923076923076923L448.2730805935993,20.124098102349866L464.2565766918267,20.12470304682808L451.3260122962778,29.52005574380398L456.2646088837677,44.721450799325766L443.3333333333333,35.32707692307692L430.4020577828989,44.721450799325766L435.34065437038885,29.520055743803983L422.41008997483993,20.124703046828074L438.39358607306735,20.124098102349866Z" fill="#FFFFFF" data-fg-d3bl6="0.8:0.125:/src/app/App.tsx:79:11:2346:72:e:path"/><path d="M570,4.923076923076923L574.9397472602659,20.124098102349866L590.9232433584933,20.12470304682808L577.9926789629445,29.52005574380398L582.9312755504344,44.721450799325766L570,35.32707692307692L557.0687244495656,44.721450799325766L562.0073210370555,29.520055743803983L549.0767566415067,20.124703046828074L565.0602527397341,20.124098102349866Z" fill="#FFFFFF" data-fg-d3bl6="0.8:0.125:/src/app/App.tsx:79:11:2346:72:e:path"/><path d="M696.6666666666667,4.923076923076923L701.6064139269326,20.124098102349866L717.5899100251601,20.12470304682808L704.6593456296113,29.52005574380398L709.5979422171011,44.721450799325766L696.6666666666667,35.32707692307692L683.7353911162323,44.721450799325766L688.6739877037222,29.520055743803983L675.7434233081734,20.124703046828074L691.7269194064008,20.124098102349866Z" fill="#FFFFFF" data-fg-d3bl6="0.8:0.125:/src/app/App.tsx:79:11:2346:72:e:path"/><path d="M126.66666666666667,58.769230769230774L131.60641392693262,73.97025194850372L147.58991002516004,73.97085689298193L134.65934562961115,83.36620958995783L139.5979422171011,98.56760464547962L126.66666666666667,89.17323076923077L113.73539111623226,98.56760464547962L118.6739877037222,83.36620958995783L105.74342330817329,73.97085689298193L121.72691940640073,73.97025194850372Z" fill="#FFFFFF" data-fg-d3bl6="0.8:0.125:/src/app/App.tsx:79:11:2346:72:e:path"/><path d="M253.33333333333334,58.769230769230774L258.2730805935993,73.97025194850372L274.2565766918267,73.97085689298193L261.32601229627784,83.36620958995783L266.2646088837678,98.56760464547962L253.33333333333334,89.17323076923077L240.40205778289894,98.56760464547962L245.34065437038888,83.36620958995783L232.41008997483996,73.97085689298193L248.3935860730674,73.97025194850372Z" fill="#FFFFFF" data-fg-d3bl6="0.8:0.125:/src/app/App.tsx:79:11:2346:72:e:path"/><path d="M380,58.769230769230774L384.93974726026596,73.97025194850372L400.9232433584934,73.97085689298193L387.99267896294447,83.36620958995783L392.9312755504344,98.56760464547962L380,89.17323076923077L367.0687244495656,98.56760464547962L372.00732103705553,83.36620958995783L359.0767566415066,73.97085689298193L375.06025273973404,73.97025194850372Z" fill="#FFFFFF" data-fg-d3bl6="0.8:0.125:/src/app/App.tsx:79:11:2346:72:e:path"/><path d="M506.6666666666667,58.769230769230774L511.60641392693265,73.97025194850372L527.5899100251601,73.97085689298193L514.6593456296112,83.36620958995783L519.5979422171011,98.56760464547962L506.6666666666667,89.17323076923077L493.7353911162323,98.56760464547962L498.6739877037222,83.36620958995783L485.7434233081733,73.97085689298193L501.7269194064007,73.97025194850372Z" fill="#FFFFFF" data-fg-d3bl6="0.8:0.125:/src/app/App.tsx:79:11:2346:72:e:path"/><path d="M633.3333333333334,58.769230769230774L638.2730805935993,73.97025194850372L654.2565766918267,73.97085689298193L641.3260122962779,83.36620958995783L646.2646088837678,98.56760464547962L633.3333333333334,89.17323076923077L620.402057782899,98.56760464547962L625.3406543703888,83.36620958995783L612.41008997484,73.97085689298193L628.3935860730675,73.97025194850372Z" fill="#FFFFFF" data-fg-d3bl6="0.8:0.125:/src/app/App.tsx:79:11:2346:72:e:path"/><path d="M63.333333333333336,112.61538461538461L68.27308059359927,127.81640579465756L84.25657669182671,127.81701073913577L71.32601229627781,137.21236343611167L76.26460888376775,152.41375849163347L63.333333333333336,143.0193846153846L50.40205778289893,152.41375849163347L55.34065437038886,137.21236343611167L42.41008997483996,127.81701073913577L58.39358607306739,127.81640579465756Z" fill="#FFFFFF" data-fg-d3bl6="0.8:0.125:/src/app/App.tsx:79:11:2346:72:e:path"/><path d="M190,112.61538461538461L194.93974726026593,127.81640579465756L210.92324335849338,127.81701073913577L197.99267896294447,137.21236343611167L202.9312755504344,152.41375849163347L190,143.0193846153846L177.0687244495656,152.41375849163347L182.00732103705553,137.21236343611167L169.07675664150662,127.81701073913577L185.06025273973407,127.81640579465756Z" fill="#FFFFFF" data-fg-d3bl6="0.8:0.125:/src/app/App.tsx:79:11:2346:72:e:path"/><path d="M316.6666666666667,112.61538461538461L321.60641392693265,127.81640579465756L337.58991002516007,127.81701073913577L324.65934562961115,137.21236343611167L329.5979422171011,152.41375849163347L316.6666666666667,143.0193846153846L303.7353911162323,152.41375849163347L308.6739877037222,137.21236343611167L295.7434233081733,127.81701073913577L311.7269194064007,127.81640579465756Z" fill="#FFFFFF" data-fg-d3bl6="0.8:0.125:/src/app/App.tsx:79:11:2346:72:e:path"/><path d="M443.3333333333333,112.61538461538461L448.2730805935993,127.81640579465756L464.2565766918267,127.81701073913577L451.3260122962778,137.21236343611167L456.2646088837677,152.41375849163347L443.3333333333333,143.0193846153846L430.4020577828989,152.41375849163347L435.34065437038885,137.21236343611167L422.41008997483993,127.81701073913577L438.39358607306735,127.81640579465756Z" fill="#FFFFFF" data-fg-d3bl6="0.8:0.125:/src/app/App.tsx:79:11:2346:72:e:path"/><path d="M570,112.61538461538461L574.9397472602659,127.81640579465756L590.9232433584933,127.81701073913577L577.9926789629445,137.21236343611167L582.9312755504344,152.41375849163347L570,143.0193846153846L557.0687244495656,152.41375849163347L562.0073210370555,137.21236343611167L549.0767566415067,127.81701073913577L565.0602527397341,127.81640579465756Z" fill="#FFFFFF" data-fg-d3bl6="0.8:0.125:/src/app/App.tsx:79:11:2346:72:e:path"/><path d="M696.6666666666667,112.61538461538461L701.6064139269326,127.81640579465756L717.5899100251601,127.81701073913577L704.6593456296113,137.21236343611167L709.5979422171011,152.41375849163347L696.6666666666667,143.0193846153846L683.7353911162323,152.41375849163347L688.6739877037222,137.21236343611167L675.7434233081734,127.81701073913577L691.7269194064008,127.81640579465756Z" fill="#FFFFFF" data-fg-d3bl6="0.8:0.125:/src/app/App.tsx:79:11:2346:72:e:path"/><path d="M126.66666666666667,166.46153846153848L131.60641392693262,181.66255964081142L147.58991002516004,181.66316458528965L134.65934562961115,191.05851728226554L139.5979422171011,206.25991233778734L126.66666666666667,196.86553846153848L113.73539111623226,206.25991233778734L118.6739877037222,191.05851728226554L105.74342330817329,181.66316458528962L121.72691940640073,181.66255964081142Z" fill="#FFFFFF" data-fg-d3bl6="0.8:0.125:/src/app/App.tsx:79:11:2346:72:e:path"/><path d="M253.33333333333334,166.46153846153848L258.2730805935993,181.66255964081142L274.2565766918267,181.66316458528965L261.32601229627784,191.05851728226554L266.2646088837678,206.25991233778734L253.33333333333334,196.86553846153848L240.40205778289894,206.25991233778734L245.34065437038888,191.05851728226554L232.41008997483996,181.66316458528962L248.3935860730674,181.66255964081142Z" fill="#FFFFFF" data-fg-d3bl6="0.8:0.125:/src/app/App.tsx:79:11:2346:72:e:path"/><path d="M380,166.46153846153848L384.93974726026596,181.66255964081142L400.9232433584934,181.66316458528965L387.99267896294447,191.05851728226554L392.9312755504344,206.25991233778734L380,196.86553846153848L367.0687244495656,206.25991233778734L372.00732103705553,191.05851728226554L359.0767566415066,181.66316458528962L375.06025273973404,181.66255964081142Z" fill="#FFFFFF" data-fg-d3bl6="0.8:0.125:/src/app/App.tsx:79:11:2346:72:e:path"/><path d="M506.6666666666667,166.46153846153848L511.60641392693265,181.66255964081142L527.5899100251601,181.66316458528965L514.6593456296112,191.05851728226554L519.5979422171011,206.25991233778734L506.6666666666667,196.86553846153848L493.7353911162323,206.25991233778734L498.6739877037222,191.05851728226554L485.7434233081733,181.66316458528962L501.7269194064007,181.66255964081142Z" fill="#FFFFFF" data-fg-d3bl6="0.8:0.125:/src/app/App.tsx:79:11:2346:72:e:path"/><path d="M633.3333333333334,166.46153846153848L638.2730805935993,181.66255964081142L654.2565766918267,181.66316458528965L641.3260122962779,191.05851728226554L646.2646088837678,206.25991233778734L633.3333333333334,196.86553846153848L620.402057782899,206.25991233778734L625.3406543703888,191.05851728226554L612.41008997484,181.66316458528962L628.3935860730675,181.66255964081142Z" fill="#FFFFFF" data-fg-d3bl6="0.8:0.125:/src/app/App.tsx:79:11:2346:72:e:path"/><path d="M63.333333333333336,220.30769230769232L68.27308059359927,235.50871348696526L84.25657669182671,235.5093184314435L71.32601229627781,244.90467112841938L76.26460888376775,260.10606618394115L63.333333333333336,250.71169230769232L50.40205778289893,260.10606618394115L55.34065437038886,244.90467112841938L42.41008997483996,235.50931843144346L58.39358607306739,235.50871348696526Z" fill="#FFFFFF" data-fg-d3bl6="0.8:0.125:/src/app/App.tsx:79:11:2346:72:e:path"/><path d="M190,220.30769230769232L194.93974726026593,235.50871348696526L210.92324335849338,235.5093184314435L197.99267896294447,244.90467112841938L202.9312755504344,260.10606618394115L190,250.71169230769232L177.0687244495656,260.10606618394115L182.00732103705553,244.90467112841938L169.07675664150662,235.50931843144346L185.06025273973407,235.50871348696526Z" fill="#FFFFFF" data-fg-d3bl6="0.8:0.125:/src/app/App.tsx:79:11:2346:72:e:path"/><path d="M316.6666666666667,220.30769230769232L321.60641392693265,235.50871348696526L337.58991002516007,235.5093184314435L324.65934562961115,244.90467112841938L329.5979422171011,260.10606618394115L316.6666666666667,250.71169230769232L303.7353911162323,260.10606618394115L308.6739877037222,244.90467112841938L295.7434233081733,235.50931843144346L311.7269194064007,235.50871348696526Z" fill="#FFFFFF" data-fg-d3bl6="0.8:0.125:/src/app/App.tsx:79:11:2346:72:e:path"/><path d="M443.3333333333333,220.30769230769232L448.2730805935993,235.50871348696526L464.2565766918267,235.5093184314435L451.3260122962778,244.90467112841938L456.2646088837677,260.10606618394115L443.3333333333333,250.71169230769232L430.4020577828989,260.10606618394115L435.34065437038885,244.90467112841938L422.41008997483993,235.50931843144346L438.39358607306735,235.50871348696526Z" fill="#FFFFFF" data-fg-d3bl6="0.8:0.125:/src/app/App.tsx:79:11:2346:72:e:path"/><path d="M570,220.30769230769232L574.9397472602659,235.50871348696526L590.9232433584933,235.5093184314435L577.9926789629445,244.90467112841938L582.9312755504344,260.10606618394115L570,250.71169230769232L557.0687244495656,260.10606618394115L562.0073210370555,244.90467112841938L549.0767566415067,235.50931843144346L565.0602527397341,235.50871348696526Z" fill="#FFFFFF" data-fg-d3bl6="0.8:0.125:/src/app/App.tsx:79:11:2346:72:e:path"/><path d="M696.6666666666667,220.30769230769232L701.6064139269326,235.50871348696526L717.5899100251601,235.5093184314435L704.6593456296113,244.90467112841938L709.5979422171011,260.10606618394115L696.6666666666667,250.71169230769232L683.7353911162323,260.10606618394115L688.6739877037222,244.90467112841938L675.7434233081734,235.50931843144346L691.7269194064008,235.50871348696526Z" fill="#FFFFFF" data-fg-d3bl6="0.8:0.125:/src/app/App.tsx:79:11:2346:72:e:path"/><path d="M126.66666666666667,274.15384615384613L131.60641392693262,289.35486733311905L147.58991002516004,289.3554722775973L134.65934562961115,298.75082497457316L139.5979422171011,313.95222003009496L126.66666666666667,304.5578461538461L113.73539111623226,313.95222003009496L118.6739877037222,298.75082497457316L105.74342330817329,289.3554722775973L121.72691940640073,289.3548673331191Z" fill="#FFFFFF" data-fg-d3bl6="0.8:0.125:/src/app/App.tsx:79:11:2346:72:e:path"/><path d="M253.33333333333334,274.15384615384613L258.2730805935993,289.35486733311905L274.2565766918267,289.3554722775973L261.32601229627784,298.75082497457316L266.2646088837678,313.95222003009496L253.33333333333334,304.5578461538461L240.40205778289894,313.95222003009496L245.34065437038888,298.75082497457316L232.41008997483996,289.3554722775973L248.3935860730674,289.3548673331191Z" fill="#FFFFFF" data-fg-d3bl6="0.8:0.125:/src/app/App.tsx:79:11:2346:72:e:path"/><path d="M380,274.15384615384613L384.93974726026596,289.35486733311905L400.9232433584934,289.3554722775973L387.99267896294447,298.75082497457316L392.9312755504344,313.95222003009496L380,304.5578461538461L367.0687244495656,313.95222003009496L372.00732103705553,298.75082497457316L359.0767566415066,289.3554722775973L375.06025273973404,289.3548673331191Z" fill="#FFFFFF" data-fg-d3bl6="0.8:0.125:/src/app/App.tsx:79:11:2346:72:e:path"/><path d="M506.6666666666667,274.15384615384613L511.60641392693265,289.35486733311905L527.5899100251601,289.3554722775973L514.6593456296112,298.75082497457316L519.5979422171011,313.95222003009496L506.6666666666667,304.5578461538461L493.7353911162323,313.95222003009496L498.6739877037222,298.75082497457316L485.7434233081733,289.3554722775973L501.7269194064007,289.3548673331191Z" fill="#FFFFFF" data-fg-d3bl6="0.8:0.125:/src/app/App.tsx:79:11:2346:72:e:path"/><path d="M633.3333333333334,274.15384615384613L638.2730805935993,289.35486733311905L654.2565766918267,289.3554722775973L641.3260122962779,298.75082497457316L646.2646088837678,313.95222003009496L633.3333333333334,304.5578461538461L620.402057782899,313.95222003009496L625.3406543703888,298.75082497457316L612.41008997484,289.3554722775973L628.3935860730675,289.3548673331191Z" fill="#FFFFFF" data-fg-d3bl6="0.8:0.125:/src/app/App.tsx:79:11:2346:72:e:path"/><path d="M63.333333333333336,328L68.27308059359927,343.2010211792729L84.25657669182671,343.20162612375117L71.32601229627781,352.59697882072703L76.26460888376775,367.79837387624883L63.333333333333336,358.404L50.40205778289893,367.79837387624883L55.34065437038886,352.59697882072703L42.41008997483996,343.20162612375117L58.39358607306739,343.20102117927297Z" fill="#FFFFFF" data-fg-d3bl6="0.8:0.125:/src/app/App.tsx:79:11:2346:72:e:path"/><path d="M190,328L194.93974726026593,343.2010211792729L210.92324335849338,343.20162612375117L197.99267896294447,352.59697882072703L202.9312755504344,367.79837387624883L190,358.404L177.0687244495656,367.79837387624883L182.00732103705553,352.59697882072703L169.07675664150662,343.20162612375117L185.06025273973407,343.20102117927297Z" fill="#FFFFFF" data-fg-d3bl6="0.8:0.125:/src/app/App.tsx:79:11:2346:72:e:path"/><path d="M316.6666666666667,328L321.60641392693265,343.2010211792729L337.58991002516007,343.20162612375117L324.65934562961115,352.59697882072703L329.5979422171011,367.79837387624883L316.6666666666667,358.404L303.7353911162323,367.79837387624883L308.6739877037222,352.59697882072703L295.7434233081733,343.20162612375117L311.7269194064007,343.20102117927297Z" fill="#FFFFFF" data-fg-d3bl6="0.8:0.125:/src/app/App.tsx:79:11:2346:72:e:path"/><path d="M443.3333333333333,328L448.2730805935993,343.2010211792729L464.2565766918267,343.20162612375117L451.3260122962778,352.59697882072703L456.2646088837677,367.79837387624883L443.3333333333333,358.404L430.4020577828989,367.79837387624883L435.34065437038885,352.59697882072703L422.41008997483993,343.20162612375117L438.39358607306735,343.20102117927297Z" fill="#FFFFFF" data-fg-d3bl6="0.8:0.125:/src/app/App.tsx:79:11:2346:72:e:path"/><path d="M570,328L574.9397472602659,343.2010211792729L590.9232433584933,343.20162612375117L577.9926789629445,352.59697882072703L582.9312755504344,367.79837387624883L570,358.404L557.0687244495656,367.79837387624883L562.0073210370555,352.59697882072703L549.0767566415067,343.20162612375117L565.0602527397341,343.20102117927297Z" fill="#FFFFFF" data-fg-d3bl6="0.8:0.125:/src/app/App.tsx:79:11:2346:72:e:path"/><path d="M696.6666666666667,328L701.6064139269326,343.2010211792729L717.5899100251601,343.20162612375117L704.6593456296113,352.59697882072703L709.5979422171011,367.79837387624883L696.6666666666667,358.404L683.7353911162323,367.79837387624883L688.6739877037222,352.59697882072703L675.7434233081734,343.20162612375117L691.7269194064008,343.20102117927297Z" fill="#FFFFFF" data-fg-d3bl6="0.8:0.125:/src/app/App.tsx:79:11:2346:72:e:path"/><path d="M126.66666666666667,381.8461538461538L131.60641392693262,397.0471750254267L147.58991002516004,397.047779969905L134.65934562961115,406.44313266688084L139.5979422171011,421.64452772240264L126.66666666666667,412.2501538461538L113.73539111623226,421.64452772240264L118.6739877037222,406.44313266688084L105.74342330817329,397.047779969905L121.72691940640073,397.0471750254268Z" fill="#FFFFFF" data-fg-d3bl6="0.8:0.125:/src/app/App.tsx:79:11:2346:72:e:path"/><path d="M253.33333333333334,381.8461538461538L258.2730805935993,397.0471750254267L274.2565766918267,397.047779969905L261.32601229627784,406.44313266688084L266.2646088837678,421.64452772240264L253.33333333333334,412.2501538461538L240.40205778289894,421.64452772240264L245.34065437038888,406.44313266688084L232.41008997483996,397.047779969905L248.3935860730674,397.0471750254268Z" fill="#FFFFFF" data-fg-d3bl6="0.8:0.125:/src/app/App.tsx:79:11:2346:72:e:path"/><path d="M380,381.8461538461538L384.93974726026596,397.0471750254267L400.9232433584934,397.047779969905L387.99267896294447,406.44313266688084L392.9312755504344,421.64452772240264L380,412.2501538461538L367.0687244495656,421.64452772240264L372.00732103705553,406.44313266688084L359.0767566415066,397.047779969905L375.06025273973404,397.0471750254268Z" fill="#FFFFFF" data-fg-d3bl6="0.8:0.125:/src/app/App.tsx:79:11:2346:72:e:path"/><path d="M506.6666666666667,381.8461538461538L511.60641392693265,397.0471750254267L527.5899100251601,397.047779969905L514.6593456296112,406.44313266688084L519.5979422171011,421.64452772240264L506.6666666666667,412.2501538461538L493.7353911162323,421.64452772240264L498.6739877037222,406.44313266688084L485.7434233081733,397.047779969905L501.7269194064007,397.0471750254268Z" fill="#FFFFFF" data-fg-d3bl6="0.8:0.125:/src/app/App.tsx:79:11:2346:72:e:path"/><path d="M633.3333333333334,381.8461538461538L638.2730805935993,397.0471750254267L654.2565766918267,397.047779969905L641.3260122962779,406.44313266688084L646.2646088837678,421.64452772240264L633.3333333333334,412.2501538461538L620.402057782899,421.64452772240264L625.3406543703888,406.44313266688084L612.41008997484,397.047779969905L628.3935860730675,397.0471750254268Z" fill="#FFFFFF" data-fg-d3bl6="0.8:0.125:/src/app/App.tsx:79:11:2346:72:e:path"/><path d="M63.333333333333336,435.6923076923077L68.27308059359927,450.8933288715806L84.25657669182671,450.89393381605885L71.32601229627781,460.2892865130347L76.26460888376775,475.4906815685565L63.333333333333336,466.0963076923077L50.40205778289893,475.4906815685565L55.34065437038886,460.2892865130347L42.41008997483996,450.89393381605885L58.39358607306739,450.89332887158065Z" fill="#FFFFFF" data-fg-d3bl6="0.8:0.125:/src/app/App.tsx:79:11:2346:72:e:path"/><path d="M190,435.6923076923077L194.93974726026593,450.8933288715806L210.92324335849338,450.89393381605885L197.99267896294447,460.2892865130347L202.9312755504344,475.4906815685565L190,466.0963076923077L177.0687244495656,475.4906815685565L182.00732103705553,460.2892865130347L169.07675664150662,450.89393381605885L185.06025273973407,450.89332887158065Z" fill="#FFFFFF" data-fg-d3bl6="0.8:0.125:/src/app/App.tsx:79:11:2346:72:e:path"/><path d="M316.6666666666667,435.6923076923077L321.60641392693265,450.8933288715806L337.58991002516007,450.89393381605885L324.65934562961115,460.2892865130347L329.5979422171011,475.4906815685565L316.6666666666667,466.0963076923077L303.7353911162323,475.4906815685565L308.6739877037222,460.2892865130347L295.7434233081733,450.89393381605885L311.7269194064007,450.89332887158065Z" fill="#FFFFFF" data-fg-d3bl6="0.8:0.125:/src/app/App.tsx:79:11:2346:72:e:path"/><path d="M443.3333333333333,435.6923076923077L448.2730805935993,450.8933288715806L464.2565766918267,450.89393381605885L451.3260122962778,460.2892865130347L456.2646088837677,475.4906815685565L443.3333333333333,466.0963076923077L430.4020577828989,475.4906815685565L435.34065437038885,460.2892865130347L422.41008997483993,450.89393381605885L438.39358607306735,450.89332887158065Z" fill="#FFFFFF" data-fg-d3bl6="0.8:0.125:/src/app/App.tsx:79:11:2346:72:e:path"/><path d="M570,435.6923076923077L574.9397472602659,450.8933288715806L590.9232433584933,450.89393381605885L577.9926789629445,460.2892865130347L582.9312755504344,475.4906815685565L570,466.0963076923077L557.0687244495656,475.4906815685565L562.0073210370555,460.2892865130347L549.0767566415067,450.89393381605885L565.0602527397341,450.89332887158065Z" fill="#FFFFFF" data-fg-d3bl6="0.8:0.125:/src/app/App.tsx:79:11:2346:72:e:path"/><path d="M696.6666666666667,435.6923076923077L701.6064139269326,450.8933288715806L717.5899100251601,450.89393381605885L704.6593456296113,460.2892865130347L709.5979422171011,475.4906815685565L696.6666666666667,466.0963076923077L683.7353911162323,475.4906815685565L688.6739877037222,460.2892865130347L675.7434233081734,450.89393381605885L691.7269194064008,450.89332887158065Z" fill="#FFFFFF" data-fg-d3bl6="0.8:0.125:/src/app/App.tsx:79:11:2346:72:e:path"/></svg>